<?xml version="1.0" encoding="UTF-8" standalone="no"?>
<!-- Created with Inkscape (http://www.inkscape.org/) -->

<svg
   width="331.78748mm"
   height="49.212494mm"
   viewBox="0 0 331.78748 49.212494"
   version="1.1"
   id="svg1"
   xml:space="preserve"
   xmlns="http://www.w3.org/2000/svg"
   xmlns:svg="http://www.w3.org/2000/svg"><defs
     id="defs1" /><g
     id="layer1"
     transform="translate(44.339662,-42.704557)"><path
       style="fill:#000000"
       d="m -43.016749,89.403518 c 0,-2.50473 -0.0023,-2.51355 -0.661458,-2.51355 h -0.661458 v -22.0927 -22.09271 h 14.2875 14.2875 v 1.71979 1.71979 h 1.5875 1.5875 v 2.51354 2.51354 h 0.79375 0.79375 v 1.85209 1.85208 h 1.5875002 1.5875 v 5.42396 5.42396 h -2.3812502 -2.38125 v 1.45521 c 0,1.44051 0.008,1.4552 0.79375,1.4552 h 0.79375 v 1.85209 1.85208 h 1.5875002 1.5875 v 5.42396 5.42396 h -2.3812502 -2.38125 v 4.36562 4.36563 h -15.213542 -15.213542 z m 29.897917,-2.38125 v -4.36563 h 2.38125 2.3812502 v -4.89479 -4.89479 h -1.322916 c -1.1465282,0 -1.3229172,0.0705 -1.3229172,0.52916 0,0.42838 0.176389,0.52917 0.926042,0.52917 h 0.9260412 v 3.83646 3.83646 h -2.3812502 -2.38125 v 4.36562 4.36563 h -13.890625 -13.890625 v -1.71979 c 0,-1.35232 -0.0848,-1.7198 -0.396875,-1.7198 -0.32165,0 -0.396875,0.42628 -0.396875,2.24896 v 2.24896 h 14.684375 14.684375 z m -1.322916,-1.5875 v -4.36563 h 2.38125 2.3812502 v -3.30729 -3.30729 h -0.6614592 c -0.642559,0 -0.661458,0.0529 -0.661458,1.85208 v 1.85208 h -2.38125 -2.38125 v 4.36563 4.36562 h -12.7 -12.7 v 1.45521 1.45521 h 13.361458 13.361459 z m -19.050001,-10.58334 v -2.51354 h 6.482292 6.482292 v -1.45521 -1.45521 h -7.14375 -7.14375 v 3.96875 3.96875 h 0.661458 c 0.659138,0 0.661458,-0.009 0.661458,-2.51354 z m 1.322917,0.79375 v -1.71979 h 5.820834 c 5.644444,0 5.820833,-0.016 5.820833,-0.52917 0,-0.51415 -0.176389,-0.52916 -6.217708,-0.52916 h -6.217709 v 2.24896 c 0,1.82268 0.07522,2.24895 0.396875,2.24895 0.312073,0 0.396875,-0.36747 0.396875,-1.71979 z m 11.641667,0.26459 v -1.45521 h -5.55625 -5.55625 v 1.45521 1.4552 h 5.55625 5.55625 z m 6.085417,-9.78959 v -2.51354 h 2.38125 2.3812502 v -3.30729 -3.30729 h -0.6614592 c -0.642559,0 -0.661458,0.0529 -0.661458,1.85208 v 1.85208 h -2.38125 -2.38125 v 3.96875 3.96875 h 0.661458 c 0.659138,0 0.661459,-0.009 0.661459,-2.51354 z m 1.322916,0.79375 v -1.71979 h 2.38125 2.3812502 v -4.89479 -4.89479 h -1.322916 c -1.1465282,0 -1.3229172,0.0705 -1.3229172,0.52916 0,0.42838 0.176389,0.52917 0.926042,0.52917 h 0.9260412 v 3.83646 3.83646 h -2.3812502 -2.38125 v 2.24896 c 0,1.82268 0.07522,2.24895 0.396875,2.24895 0.312073,0 0.396875,-0.36747 0.396875,-1.71979 z m -20.372917,-9.525 v -2.51354 h 6.482292 6.482292 v -1.45521 -1.45521 h -7.14375 -7.14375 v 3.96875 3.96875 h 0.661458 c 0.659138,0 0.661458,-0.009 0.661458,-2.51354 z m 1.322917,0.79375 v -1.71979 h 5.820834 c 5.644444,0 5.820833,-0.016 5.820833,-0.52917 0,-0.51415 -0.176389,-0.52916 -6.217708,-0.52916 h -6.217709 v 2.24896 c 0,1.82268 0.07522,2.24895 0.396875,2.24895 0.312073,0 0.396875,-0.36747 0.396875,-1.71979 z m 11.641667,0.26459 v -1.45521 h -5.55625 -5.55625 v 1.45521 1.4552 h 5.55625 5.55625 z m 6.085417,-8.73125 c 0,-1.37584 -0.03608,-1.45521 -0.661459,-1.45521 -0.625378,0 -0.661458,0.0794 -0.661458,1.45521 0,1.37583 0.03608,1.4552 0.661458,1.4552 0.625379,0 0.661459,-0.0794 0.661459,-1.4552 z m 1.322916,-0.79375 v -2.24896 h -1.322916 c -1.146528,0 -1.322917,0.0705 -1.322917,0.52916 0,0.42838 0.176389,0.52917 0.926042,0.52917 h 0.926041 v 1.71979 c 0,1.35232 0.0848,1.71979 0.396875,1.71979 0.321651,0 0.396875,-0.42627 0.396875,-2.24895 z m 8.2020842,40.48125 c 0,-2.50473 -0.0023,-2.51355 -0.661459,-2.51355 h -0.661458 v -22.0927 -22.09271 H 10.429085 27.097836 v 1.71979 1.71979 h 1.5875 1.5875 v 5.42396 5.42396 H 18.366586 6.4603352 v 1.45521 1.4552 h 5.5562498 5.556251 v 1.85209 1.85208 h 1.5875 1.5875 v 5.42396 5.42396 H 13.604085 6.4603352 v 1.45521 1.4552 h 10.3187508 10.31875 v 1.85209 1.85208 h 1.5875 1.5875 v 5.42396 5.42396 H 12.678044 -4.9167478 Z m 34.6604168,-2.91042 v -4.89479 h -1.322917 c -1.146528,0 -1.322916,0.0705 -1.322916,0.52916 0,0.42838 0.176388,0.52917 0.926041,0.52917 h 0.926042 v 3.83646 3.83646 H 12.678044 -3.5938318 v -1.71979 c 0,-1.35232 -0.0848,-1.7198 -0.396875,-1.7198 -0.32165,0 -0.396875,0.42628 -0.396875,2.24896 v 2.24896 H 12.678044 29.743669 Z m -1.322917,0 v -3.30729 h -0.661458 c -0.64256,0 -0.661458,0.0529 -0.661458,1.85208 v 1.85208 H 12.016585 -3.0646648 v 1.45521 1.45521 H 12.678044 28.420752 Z M 4.6082522,74.851428 v -2.51354 h 7.1437498 7.14375 v -3.30729 -3.30729 h -0.661458 c -0.64256,0 -0.661458,0.0529 -0.661458,1.85208 v 1.85208 H 10.429085 3.2853352 v 3.96875 3.96875 h 0.661459 c 0.659137,0 0.661458,-0.009 0.661458,-2.51354 z m 1.322917,0.79375 v -1.71979 h 7.1437498 7.14375 v -4.89479 -4.89479 h -1.322917 c -1.146528,0 -1.322916,0.0705 -1.322916,0.52916 0,0.42838 0.176388,0.52917 0.926041,0.52917 h 0.926042 v 3.83646 3.83646 h -7.14375 -7.1437498 v 2.24896 c 0,1.82268 0.07522,2.24895 0.396875,2.24895 0.312072,0 0.396875,-0.36747 0.396875,-1.71979 z m -1.322917,-18.25625 v -2.51354 h 11.9062498 11.90625 v -3.30729 -3.30729 h -0.661458 c -0.64256,0 -0.661458,0.0529 -0.661458,1.85208 v 1.85208 H 15.191586 3.2853352 v 3.96875 3.96875 h 0.661459 c 0.659137,0 0.661458,-0.009 0.661458,-2.51354 z m 1.322917,0.79375 v -1.71979 h 11.9062498 11.90625 v -4.89479 -4.89479 h -1.322917 c -1.146528,0 -1.322916,0.0705 -1.322916,0.52916 0,0.42838 0.176388,0.52917 0.926041,0.52917 h 0.926042 v 3.83646 3.83646 H 17.043669 5.1374192 v 2.24896 c 0,1.82268 0.07522,2.24895 0.396875,2.24895 0.312072,0 0.396875,-0.36747 0.396875,-1.71979 z m 27.2520828,31.22084 c 0,-2.50473 -0.0023,-2.51355 -0.661458,-2.51355 h -0.661458 v -22.0927 -22.09271 h 7.14375 7.14375 v 1.71979 1.71979 h 1.5875 1.5875 v 2.51354 2.51354 h 0.79375 0.79375 v 1.85209 1.85208 h 1.5875 1.5875 v 2.51354 2.51354 h 0.79375 0.79375 v 1.85209 1.85208 h 1.5875 1.5875 v 2.51354 2.51354 h 0.79375 0.79375 v 1.85209 1.85208 h 1.5875 1.5875 v 2.51354 2.51354 h 0.79375 0.79375 v -17.3302 -17.33021 h 4.7625 4.7625 v 1.71979 1.71979 h 1.5875 1.5875 v 22.88646 22.88646 H 67.446794 56.995753 v -2.51354 c 0,-2.50473 -0.0023,-2.51355 -0.661459,-2.51355 -0.642559,0 -0.661458,-0.0529 -0.661458,-1.85208 v -1.85208 h -1.719792 -1.719792 v -2.51354 c 0,-2.50473 -0.0023,-2.51355 -0.661458,-2.51355 -0.642559,0 -0.661458,-0.0529 -0.661458,-1.85208 v -1.85208 h -1.719792 -1.719792 v -2.51354 c 0,-2.50473 -0.0023,-2.51355 -0.661458,-2.51355 -0.642559,0 -0.661458,-0.0529 -0.661458,-1.85208 v -1.85208 h -0.79375 -0.79375 v 13.09687 13.09688 h -5.688542 -5.688542 z m 10.847917,-11.1125 v -13.09688 h 1.058333 c 0.881945,0 1.058334,-0.0882 1.058334,-0.52917 0,-0.46502 -0.176389,-0.52916 -1.455209,-0.52916 h -1.455208 v 13.09687 13.09688 h -4.365625 -4.365625 v -1.71979 c 0,-1.35232 -0.0848,-1.7198 -0.396875,-1.7198 -0.32165,0 -0.396875,0.42628 -0.396875,2.24896 v 2.24896 h 5.159375 5.159375 z m 33.3375,-9.26042 v -22.35729 h -1.322916 c -1.146528,0 -1.322917,0.0705 -1.322917,0.52916 0,0.42838 0.176389,0.52917 0.926042,0.52917 h 0.926041 v 21.29896 21.29896 h -9.128125 -9.128125 v -1.71979 c 0,-1.35232 -0.0848,-1.7198 -0.396875,-1.7198 -0.32165,0 -0.396875,0.42628 -0.396875,2.24896 v 2.24896 h 9.921875 9.921875 z m -34.660417,7.67292 v -13.09688 h 1.719792 1.719792 v -1.45521 -1.45521 h -2.38125 -2.38125 v 13.09688 13.09687 h -3.175 -3.175 v 1.45521 1.45521 h 3.836458 3.836458 z m 33.337501,-7.67292 v -20.76979 h -0.661459 -0.661458 v 19.31458 19.31458 h -7.9375 -7.9375 v 1.45521 1.45521 h 8.598958 8.598959 z m -20.372917,13.09687 c 0,-0.44097 -0.176389,-0.52916 -1.058334,-0.52916 h -1.058333 v -1.71979 c 0,-1.35232 -0.0848,-1.7198 -0.396875,-1.7198 -0.32165,0 -0.396875,0.42628 -0.396875,2.24896 v 2.24896 h 1.455208 c 1.27882,0 1.455209,-0.0641 1.455209,-0.52917 z m 0,-2.51354 c 0,-1.44051 -0.008,-1.45521 -0.79375,-1.45521 -0.785732,0 -0.79375,0.0147 -0.79375,1.45521 0,1.44051 0.008,1.45521 0.79375,1.45521 0.785732,0 0.79375,-0.0147 0.79375,-1.45521 z m 6.085417,-3.70416 c 0,-1.37584 -0.03608,-1.45521 -0.661459,-1.45521 -0.625379,0 -0.661458,0.0794 -0.661458,1.45521 0,1.37583 0.03608,1.4552 0.661458,1.4552 0.625379,0 0.661459,-0.0794 0.661459,-1.4552 z m 1.322916,-0.79375 v -2.24896 h -1.322916 c -1.146528,0 -1.322917,0.0705 -1.322917,0.52916 0,0.42838 0.176389,0.52917 0.926042,0.52917 h 0.926041 v 1.71979 c 0,1.35232 0.0848,1.71979 0.396875,1.71979 0.321651,0 0.396875,-0.42627 0.396875,-2.24895 z m -12.170833,-1.7198 c 0,-0.44097 -0.176389,-0.52916 -1.058334,-0.52916 h -1.058333 v -1.71979 c 0,-1.35232 -0.0848,-1.7198 -0.396875,-1.7198 -0.32165,0 -0.396875,0.42628 -0.396875,2.24896 v 2.24896 h 1.455208 c 1.27882,0 1.455209,-0.0641 1.455209,-0.52917 z m 0,-2.51354 c 0,-1.44051 -0.008,-1.45521 -0.79375,-1.45521 -0.785733,0 -0.79375,0.0147 -0.79375,1.45521 0,1.44051 0.008,1.45521 0.79375,1.45521 0.785732,0 0.79375,-0.0147 0.79375,-1.45521 z m 6.085417,-3.70416 c 0,-1.37584 -0.03608,-1.45521 -0.661459,-1.45521 -0.625379,0 -0.661458,0.0794 -0.661458,1.45521 0,1.37583 0.03608,1.4552 0.661458,1.4552 0.625379,0 0.661459,-0.0794 0.661459,-1.4552 z m 1.322916,-0.79375 v -2.24896 h -1.322916 c -1.146528,0 -1.322917,0.0705 -1.322917,0.52916 0,0.42838 0.176389,0.52917 0.926042,0.52917 h 0.926041 v 1.71979 c 0,1.35232 0.0848,1.71979 0.396875,1.71979 0.321651,0 0.396875,-0.42627 0.396875,-2.24895 z m -6.085417,-7.9375 c 0,-1.37584 -0.03608,-1.45521 -0.661458,-1.45521 -0.625379,0 -0.661458,0.0794 -0.661458,1.45521 0,1.37583 0.03608,1.4552 0.661458,1.4552 0.625379,0 0.661458,-0.0794 0.661458,-1.4552 z m 1.322917,-0.79375 v -2.24896 h -1.322917 c -1.146527,0 -1.322916,0.0705 -1.322916,0.52916 0,0.42838 0.176389,0.52917 0.926041,0.52917 h 0.926042 v 1.71979 c 0,1.35232 0.0848,1.71979 0.396875,1.71979 0.32165,0 0.396875,-0.42627 0.396875,-2.24895 z m -6.085417,-7.9375 c 0,-1.37584 -0.03608,-1.45521 -0.661458,-1.45521 -0.625379,0 -0.661458,0.0794 -0.661458,1.45521 0,1.37583 0.03608,1.4552 0.661458,1.4552 0.625379,0 0.661458,-0.0794 0.661458,-1.4552 z m 1.322917,-0.79375 v -2.24896 h -1.322917 c -1.146527,0 -1.322916,0.0705 -1.322916,0.52916 0,0.42838 0.176389,0.52917 0.926041,0.52917 h 0.926042 v 1.71979 c 0,1.35232 0.0848,1.71979 0.396875,1.71979 0.32165,0 0.396875,-0.42627 0.396875,-2.24895 z m 36.777084,40.48125 c 0,-2.50473 -0.0023,-2.51355 -0.661458,-2.51355 -0.64256,0 -0.661459,-0.0529 -0.661459,-1.85208 v -1.85208 h -1.719792 -1.719791 v -2.51354 c 0,-2.50473 -0.0023,-2.51355 -0.661459,-2.51355 h -0.661458 v -13.49375 -13.49375 h 2.38125 2.38125 v -4.23333 -4.23333 h 14.2875 14.287504 v 1.71979 1.71979 h 1.5875 1.5875 v 5.42396 5.42396 H 104.09159 92.185336 v 10.18646 10.18645 h 10.318754 10.31875 v 1.85209 1.85208 h 1.5875 1.5875 v 5.42396 5.42396 H 100.7843 85.570753 Z m 29.897917,-2.91042 v -4.89479 h -1.32292 c -1.14652,0 -1.32291,0.0705 -1.32291,0.52916 0,0.42838 0.17639,0.52917 0.92604,0.52917 h 0.92604 v 3.83646 3.83646 H 100.7843 86.89367 v -1.71979 c 0,-1.35232 -0.0848,-1.7198 -0.396875,-1.7198 -0.321651,0 -0.396875,0.42628 -0.396875,2.24896 v 2.24896 h 14.68438 14.68437 z m -1.32292,0 v -3.30729 h -0.66145 c -0.64256,0 -0.66146,0.0529 -0.66146,1.85208 v 1.85208 h -12.7 -12.700004 v 1.45521 1.45521 h 13.361464 13.36145 z m -29.897914,-4.36563 c 0,-0.44097 -0.176389,-0.52916 -1.058333,-0.52916 h -1.058334 v -1.71979 c 0,-1.35232 -0.0848,-1.7198 -0.396875,-1.7198 -0.32165,0 -0.396875,0.42628 -0.396875,2.24896 v 2.24896 h 1.455209 c 1.278819,0 1.455208,-0.0641 1.455208,-0.52917 z m 0,-2.51354 c 0,-1.44051 -0.008,-1.45521 -0.79375,-1.45521 -0.785732,0 -0.79375,0.0147 -0.79375,1.45521 0,1.44051 0.008,1.45521 0.79375,1.45521 0.785733,0 0.79375,-0.0147 0.79375,-1.45521 z m 6.085417,-13.49375 v -11.24479 h 11.906247 11.90625 v -3.30729 -3.30729 h -0.66145 c -0.64256,0 -0.66146,0.0529 -0.66146,1.85208 v 1.85208 H 100.91659 89.010336 v 12.7 12.7 h 0.661459 0.661458 z m 1.322917,0.79375 v -10.45104 h 11.90625 11.90625 v -4.89479 -4.89479 h -1.32292 c -1.14652,0 -1.32291,0.0705 -1.32291,0.52916 0,0.42838 0.17639,0.52917 0.92604,0.52917 h 0.92604 v 3.83646 3.83646 H 102.76867 90.86242 v 10.98021 c 0,9.58379 0.05047,10.9802 0.396875,10.9802 0.346079,0 0.396875,-1.33761 0.396875,-10.45104 z m 27.25209,22.48959 c 0,-2.50473 -0.002,-2.51355 -0.66146,-2.51355 h -0.66146 v -22.0927 -22.09271 h 4.7625 4.7625 v 1.71979 1.71979 h 1.5875 1.5875 v 6.87917 6.87916 h 5.55625 5.55625 v -8.59895 -8.59896 h 4.7625 4.7625 v 1.71979 1.71979 h 1.5875 1.5875 v 22.88646 22.88646 h -5.68854 -5.68854 v -2.51354 c 0,-2.50473 -0.002,-2.51355 -0.66146,-2.51355 h -0.66146 v -6.2177 -6.21771 h -5.55625 -5.55625 v 8.73125 8.73125 h -5.68854 -5.68854 z m 10.84791,-6.74688 v -8.73125 h 5.82084 c 5.64444,0 5.82083,-0.016 5.82083,-0.52917 0,-0.51415 -0.17639,-0.52916 -6.21771,-0.52916 h -6.21771 v 8.73125 8.73125 h -4.36562 -4.36563 v -1.71979 c 0,-1.35232 -0.0848,-1.7198 -0.39687,-1.7198 -0.32165,0 -0.39688,0.42628 -0.39688,2.24896 v 2.24896 h 5.15938 5.15937 z m 23.8125,-13.62604 v -22.35729 h -1.32291 c -1.14653,0 -1.32292,0.0705 -1.32292,0.52916 0,0.42838 0.17639,0.52917 0.92604,0.52917 h 0.92604 v 21.29896 21.29896 h -4.36562 -4.36563 v -1.71979 c 0,-1.35232 -0.0848,-1.7198 -0.39687,-1.7198 -0.32165,0 -0.39688,0.42628 -0.39688,2.24896 v 2.24896 h 5.15938 5.15937 z m -25.13541,12.03854 v -8.73125 h 6.48229 6.48229 v -1.45521 -1.45521 h -7.14375 -7.14375 v 8.73125 8.73125 h -3.175 -3.175 v 1.45521 1.45521 h 3.83646 3.83646 z m 23.8125,-12.03854 v -20.76979 h -0.66146 -0.66146 v 19.31458 19.31458 h -3.175 -3.175 v 1.45521 1.45521 h 3.83646 3.83646 z m -23.8125,-14.94896 v -5.82083 h -0.66146 -0.66146 v 5.82083 5.82083 h 0.66146 0.66146 z m 1.32291,-0.79375 v -6.61458 h -1.32291 c -1.14653,0 -1.32292,0.0705 -1.32292,0.52916 0,0.42838 0.17639,0.52917 0.92604,0.52917 h 0.92604 v 6.08542 c 0,5.23287 0.0556,6.08541 0.39688,6.08541 0.34219,0 0.39687,-0.91134 0.39687,-6.61458 z m 32.01459,36.11563 c 0,-2.50473 -0.002,-2.51355 -0.66146,-2.51355 -0.64256,0 -0.66146,-0.0529 -0.66146,-1.85208 v -1.85208 h -1.71979 -1.71979 v -2.51354 c 0,-2.50473 -0.002,-2.51355 -0.66146,-2.51355 h -0.66146 v -13.49375 -13.49375 h 2.38125 2.38125 v -4.23333 -4.23333 h 14.2875 14.2875 v 1.71979 1.71979 h 1.5875 1.5875 v 5.42396 5.42396 h -11.90625 -11.90625 v 10.18646 10.18645 h 10.31875 10.31875 v 1.85209 1.85208 h 1.5875 1.5875 v 5.42396 5.42396 H 176.9843 161.77076 Z m 29.89791,-2.91042 v -4.89479 h -1.32291 c -1.14653,0 -1.32292,0.0705 -1.32292,0.52916 0,0.42838 0.17639,0.52917 0.92604,0.52917 h 0.92604 v 3.83646 3.83646 H 176.9843 163.09367 v -1.71979 c 0,-1.35232 -0.0848,-1.7198 -0.39687,-1.7198 -0.32165,0 -0.39688,0.42628 -0.39688,2.24896 v 2.24896 h 14.68438 14.68437 z m -1.32291,0 v -3.30729 h -0.66146 c -0.64256,0 -0.66146,0.0529 -0.66146,1.85208 v 1.85208 h -12.7 -12.7 v 1.45521 1.45521 h 13.36146 13.36146 z m -29.89792,-4.36563 c 0,-0.44097 -0.17639,-0.52916 -1.05833,-0.52916 h -1.05834 v -1.71979 c 0,-1.35232 -0.0848,-1.7198 -0.39687,-1.7198 -0.32165,0 -0.39688,0.42628 -0.39688,2.24896 v 2.24896 h 1.45521 c 1.27882,0 1.45521,-0.0641 1.45521,-0.52917 z m 0,-2.51354 c 0,-1.44051 -0.008,-1.45521 -0.79375,-1.45521 -0.78573,0 -0.79375,0.0147 -0.79375,1.45521 0,1.44051 0.008,1.45521 0.79375,1.45521 0.78573,0 0.79375,-0.0147 0.79375,-1.45521 z m 6.08542,-13.49375 v -11.24479 h 11.90625 11.90625 v -3.30729 -3.30729 h -0.66146 c -0.64256,0 -0.66146,0.0529 -0.66146,1.85208 v 1.85208 h -11.90625 -11.90625 v 12.7 12.7 h 0.66146 0.66146 z m 1.32291,0.79375 v -10.45104 h 11.90625 11.90625 v -4.89479 -4.89479 h -1.32291 c -1.14653,0 -1.32292,0.0705 -1.32292,0.52916 0,0.42838 0.17639,0.52917 0.92604,0.52917 h 0.92604 v 3.83646 3.83646 h -11.90625 -11.90625 v 10.98021 c 0,9.58379 0.0505,10.9802 0.39688,10.9802 0.34608,0 0.39687,-1.33761 0.39687,-10.45104 z m 32.01459,22.48959 c 0,-2.50473 -0.002,-2.51355 -0.66146,-2.51355 -0.64256,0 -0.66146,-0.0529 -0.66146,-1.85208 v -1.85208 h -1.71979 -1.71979 v -2.51354 c 0,-2.50473 -0.002,-2.51355 -0.66146,-2.51355 h -0.66146 v -13.49375 -13.49375 h 2.38125 2.38125 v -4.23333 -4.23333 h 14.2875 14.2875 v 1.71979 1.71979 h 1.5875 1.5875 v 2.51354 2.51354 h 0.79375 0.79375 v 1.85209 1.85208 h 1.5875 1.5875 v 14.15521 14.15521 h -2.38125 -2.38125 v 4.36562 4.36563 H 215.0843 199.87076 Z m 29.89791,-2.38125 v -4.36563 h 2.38125 2.38125 v -13.62604 -13.62604 h -1.32291 c -1.14653,0 -1.32292,0.0705 -1.32292,0.52916 0,0.42838 0.17639,0.52917 0.92604,0.52917 h 0.92604 v 12.56771 12.56771 h -2.38125 -2.38125 v 4.36562 4.36563 H 215.0843 201.19367 v -1.71979 c 0,-1.35232 -0.0848,-1.7198 -0.39687,-1.7198 -0.32165,0 -0.39688,0.42628 -0.39688,2.24896 v 2.24896 h 14.68438 14.68437 z m -1.32291,-1.5875 v -4.36563 h 2.38125 2.38125 v -12.03854 -12.03854 h -0.66146 -0.66146 v 10.58333 10.58333 h -2.38125 -2.38125 v 4.36563 4.36562 h -12.7 -12.7 v 1.45521 1.45521 h 13.36146 13.36146 z m -29.89792,-3.3073 c 0,-0.44097 -0.17639,-0.52916 -1.05833,-0.52916 h -1.05834 v -1.71979 c 0,-1.35232 -0.0848,-1.7198 -0.39687,-1.7198 -0.32165,0 -0.39688,0.42628 -0.39688,2.24896 v 2.24896 h 1.45521 c 1.27882,0 1.45521,-0.0641 1.45521,-0.52917 z m 0,-2.51354 c 0,-1.44051 -0.008,-1.45521 -0.79375,-1.45521 -0.78573,0 -0.79375,0.0147 -0.79375,1.45521 0,1.44051 0.008,1.45521 0.79375,1.45521 0.78573,0 0.79375,-0.0147 0.79375,-1.45521 z m 6.08542,-13.49375 v -11.24479 h 8.86354 8.86354 v -1.45521 -1.45521 h -9.525 -9.525 v 12.7 12.7 h 0.66146 0.66146 z m 1.32291,0.79375 v -10.45104 h 8.20209 c 8.02569,0 8.20208,-0.0114 8.20208,-0.52917 0,-0.51831 -0.17639,-0.52916 -8.59896,-0.52916 h -8.59896 v 10.98021 c 0,9.58379 0.0505,10.9802 0.39688,10.9802 0.34608,0 0.39687,-1.33761 0.39687,-10.45104 z m 16.40417,0.26459 v -10.18646 h -7.9375 -7.9375 v 10.18646 10.18645 h 7.9375 7.9375 z m 6.08542,-17.4625 c 0,-1.37584 -0.0361,-1.45521 -0.66146,-1.45521 -0.62538,0 -0.66146,0.0794 -0.66146,1.45521 0,1.37583 0.0361,1.4552 0.66146,1.4552 0.62538,0 0.66146,-0.0794 0.66146,-1.4552 z m 1.32291,-0.79375 v -2.24896 h -1.32291 c -1.14653,0 -1.32292,0.0705 -1.32292,0.52916 0,0.42838 0.17639,0.52917 0.92604,0.52917 h 0.92604 v 1.71979 c 0,1.35232 0.0848,1.71979 0.39688,1.71979 0.32165,0 0.39687,-0.42627 0.39687,-2.24895 z m 8.20209,40.48125 c 0,-2.50473 -0.002,-2.51355 -0.66146,-2.51355 h -0.66146 v -22.0927 -22.09271 h 7.14375 7.14375 v 1.71979 1.71979 h 1.5875 1.5875 v 2.51354 2.51354 h 0.79375 0.79375 v 1.85209 1.85208 h 1.5875 1.5875 v 2.51354 2.51354 h 3.175 3.175 v -4.36562 -4.36563 h 2.38125 2.38125 v -4.23333 -4.23333 h 7.14375 7.14375 v 1.71979 1.71979 h 1.5875 1.5875 v 22.88646 22.88646 h -5.68854 -5.68854 v -2.51354 c 0,-2.50473 -0.002,-2.51355 -0.66146,-2.51355 h -0.66146 v -10.58333 -10.58333 h -0.79375 -0.79375 v 4.36562 4.36563 h -2.38125 -2.38125 v 4.36562 4.36563 h -5.68854 -5.68854 v -2.51354 c 0,-2.50473 -0.002,-2.51355 -0.66146,-2.51355 -0.64256,0 -0.66146,-0.0529 -0.66146,-1.85208 v -1.85208 h -1.71979 -1.71979 v -2.51354 c 0,-2.50473 -0.002,-2.51355 -0.66146,-2.51355 -0.64256,0 -0.66146,-0.0529 -0.66146,-1.85208 v -1.85208 h -0.79375 -0.79375 v 13.09687 13.09688 h -5.68854 -5.68854 z m 10.84791,-11.1125 v -13.09688 h 1.05834 c 0.88194,0 1.05833,-0.0882 1.05833,-0.52917 0,-0.46502 -0.17639,-0.52916 -1.45521,-0.52916 h -1.45521 v 13.09687 13.09688 h -4.36562 -4.36563 v -1.71979 c 0,-1.35232 -0.0848,-1.7198 -0.39687,-1.7198 -0.32165,0 -0.39688,0.42628 -0.39688,2.24896 v 2.24896 h 5.15938 5.15937 z m 38.1,-9.26042 v -22.35729 h -1.32291 c -1.14653,0 -1.32292,0.0705 -1.32292,0.52916 0,0.42838 0.17639,0.52917 0.92604,0.52917 h 0.92604 v 21.29896 21.29896 h -4.36562 -4.36563 v -1.71979 c 0,-1.35232 -0.0848,-1.7198 -0.39687,-1.7198 -0.32165,0 -0.39688,0.42628 -0.39688,2.24896 v 2.24896 h 5.15938 5.15937 z m -39.42291,7.67292 v -13.09688 h 1.71979 1.71979 v -1.45521 -1.45521 h -2.38125 -2.38125 v 13.09688 13.09687 h -3.175 -3.175 v 1.45521 1.45521 h 3.83646 3.83646 z m 38.1,-7.67292 v -20.76979 h -0.66146 -0.66146 v 19.31458 19.31458 h -3.175 -3.175 v 1.45521 1.45521 h 3.83646 3.83646 z m -17.72709,9.26042 v -4.36563 h 2.38125 2.38125 v -4.36562 -4.36563 h 1.05834 c 0.88194,0 1.05833,-0.0882 1.05833,-0.52917 0,-0.46502 -0.17639,-0.52916 -1.45521,-0.52916 h -1.45521 v 4.36562 4.36563 h -2.38125 -2.38125 v 4.36562 4.36563 h -4.36562 -4.36563 v -1.71979 c 0,-1.35232 -0.0848,-1.7198 -0.39687,-1.7198 -0.32165,0 -0.39688,0.42628 -0.39688,2.24896 v 2.24896 h 5.15938 5.15937 z m -1.32291,-1.5875 v -4.36563 h 2.38125 2.38125 v -4.36562 -4.36563 h 1.71979 1.71979 v -1.45521 -1.45521 h -2.38125 -2.38125 v 4.36563 4.36562 h -2.38125 -2.38125 v 4.36563 4.36562 h -3.175 -3.175 v 1.45521 1.45521 h 3.83646 3.83646 z m -10.84792,-3.3073 c 0,-0.44097 -0.17639,-0.52916 -1.05833,-0.52916 h -1.05834 v -1.71979 c 0,-1.35232 -0.0848,-1.7198 -0.39687,-1.7198 -0.32165,0 -0.39688,0.42628 -0.39688,2.24896 v 2.24896 h 1.45521 c 1.27882,0 1.45521,-0.0641 1.45521,-0.52917 z m 0,-2.51354 c 0,-1.44051 -0.008,-1.45521 -0.79375,-1.45521 -0.78573,0 -0.79375,0.0147 -0.79375,1.45521 0,1.44051 0.008,1.45521 0.79375,1.45521 0.78573,0 0.79375,-0.0147 0.79375,-1.45521 z m 1.32292,-12.43541 c 0,-1.37584 -0.0361,-1.45521 -0.66146,-1.45521 -0.62538,0 -0.66146,0.0794 -0.66146,1.45521 0,1.37583 0.0361,1.4552 0.66146,1.4552 0.62538,0 0.66146,-0.0794 0.66146,-1.4552 z m 1.32291,-0.79375 v -2.24896 h -1.32291 c -1.14653,0 -1.32292,0.0705 -1.32292,0.52916 0,0.42838 0.17639,0.52917 0.92604,0.52917 h 0.92604 v 1.71979 c 0,1.35232 0.0848,1.71979 0.39688,1.71979 0.32165,0 0.39687,-0.42627 0.39687,-2.24895 z m -6.08541,-7.9375 c 0,-1.37584 -0.0361,-1.45521 -0.66146,-1.45521 -0.62538,0 -0.66146,0.0794 -0.66146,1.45521 0,1.37583 0.0361,1.4552 0.66146,1.4552 0.62538,0 0.66146,-0.0794 0.66146,-1.4552 z m 1.32291,-0.79375 v -2.24896 h -1.32291 c -1.14653,0 -1.32292,0.0705 -1.32292,0.52916 0,0.42838 0.17639,0.52917 0.92604,0.52917 h 0.92604 v 1.71979 c 0,1.35232 0.0848,1.71979 0.39688,1.71979 0.32165,0 0.39687,-0.42627 0.39687,-2.24895 z"
       id="path1" /></g></svg>
